<svg xmlns="http://www.w3.org/2000/svg" height="48px" viewBox="0 -960 960 960" width="48px" fill="#00171f"><path d="M484-74q-84.55 0-159.3-32.1-74.75-32.1-130.63-87.97-55.87-55.88-87.97-130.63T74-484q0-151.04 96-264.52Q266-862 416-888q-17 99 10.5 194.63Q454-597.73 526-526.63q71 72.1 166.5 99.14Q788-400.45 888-417.47q-25 149.2-138.97 246.34Q635.05-74 484-74Zm0-73q96 0 174.5-53T787-337q-88-9-169-42.5T474.5-476Q411-538 378-618.5T336-786q-84 48-136.5 127T147-484q0 140.42 98.29 238.71Q343.58-147 484-147Zm-10-329Z"/></svg>